<svg width="88" height="88" viewBox="0 0 88 88" fill="none" xmlns="http://www.w3.org/2000/svg">
<rect width="88" height="88" rx="44" fill="white"/>
<path d="M44 65C44 53.402 53.402 44 65 44V64C65 64.5523 64.5523 65 64 65H44Z" fill="#101010"/>
<path d="M23 44C34.598 44 44 53.402 44 65H24C23.4477 65 23 64.5523 23 64V44Z" fill="#101010"/>
<path d="M44 23H64C64.5523 23 65 23.4477 65 24V44C53.402 44 44 34.598 44 23Z" fill="#101010"/>
<path d="M23 24C23 23.4477 23.4477 23 24 23H44C44 34.598 34.598 44 23 44V24Z" fill="#101010"/>
</svg>
