<svg width="95" height="18" viewBox="0 0 95 18" fill="none" xmlns="http://www.w3.org/2000/svg">
<path fill-rule="evenodd" clip-rule="evenodd" d="M24.6875 17.9954V18L24.6829 17.9954H24.6875ZM24.6875 17.9954V0H30.5385C32.7561 0 34.204 0.0913242 34.8775 0.269406C35.913 0.538813 36.779 1.12785 37.4754 2.03196C38.1719 2.93607 38.5247 4.10502 38.5247 5.53881C38.5247 6.64383 38.3231 7.57534 37.9199 8.3242C37.5167 9.07762 37.0081 9.66667 36.3849 10.0959C35.7664 10.5251 35.1341 10.8082 34.4926 10.9498C33.6221 11.1233 32.3621 11.2055 30.708 11.2055H28.33V17.9954H24.6875ZM28.3346 8.15525V3.04566V3.0411H30.0986C31.4136 3.0411 32.2888 3.08219 32.724 3.16438C33.3151 3.27397 33.8054 3.53881 34.1902 3.96347C34.5751 4.38813 34.7675 4.93151 34.7675 5.58447C34.7675 6.11872 34.6301 6.58447 34.3552 6.9863C34.0803 7.38813 33.7 7.68493 33.2143 7.87214C32.7286 8.05936 31.771 8.15525 30.3323 8.15525H28.3346ZM12.5726 8.3379C13.0033 8.3379 13.3973 8.57078 13.6035 8.94521H13.6081L18.6252 18H14.5016C14.0709 18 13.6768 17.7671 13.4706 17.3927L9.42028 10.0776H6.04804C5.61735 10.0776 5.22331 9.84475 5.01712 9.47032L0 0.415527H4.11908C4.54978 0.415527 4.94382 0.648403 5.15 1.02283L9.20035 8.3379H12.5726ZM13.9973 6.30138C13.8232 6.53883 13.5437 6.68038 13.2505 6.68038H10.1669L9.63543 5.68038L13.2184 0.7991C13.3925 0.561657 13.672 0.420105 13.9653 0.420105H18.3135L13.9973 6.30138ZM5.42943 11.7397C5.13619 11.7397 4.8567 11.8813 4.68259 12.1187L0.366485 18H4.71466C5.0079 18 5.28739 17.8584 5.4615 17.621L9.04451 12.7397L8.51301 11.7397H5.42943ZM40.9023 18V0H44.5495V18H40.9023ZM52.361 8.6073L46.1893 18H50.5558L54.574 11.7763L58.5786 18H62.9772L56.8054 8.74429L62.4228 0H58.1983L54.6519 5.78082L51.0277 0H46.7666L52.361 8.6073ZM65.3549 18V0H78.7477V3.04566H69.0021V7.03653H78.0695V10.0685H69.0021V14.968H79.0913V18H65.3549ZM82.2858 0.146118V18H95.0004V14.968H85.9329V0.146118H82.2858Z" fill="#101010"/>
</svg>
