<svg width="88" height="88" viewBox="0 0 88 88" fill="none" xmlns="http://www.w3.org/2000/svg">
<rect width="88" height="88" rx="44" fill="white"/>
<path d="M45.614 38.5124C47.7246 31.3365 53.3365 25.7246 60.5124 23.614L64.2412 22.5173C65.0005 22.294 65.706 22.9995 65.4827 23.7588L64.386 27.4876C62.2754 34.6635 56.6635 40.2754 49.4876 42.386L44 44L45.614 38.5124Z" fill="#101010"/>
<path d="M23.614 60.5124C25.7246 53.3365 31.3365 47.7246 38.5124 45.614L44 44L42.386 49.4876C40.2754 56.6635 34.6635 62.2754 27.4876 64.386L23.7588 65.4827C22.9995 65.706 22.294 65.0005 22.5173 64.2412L23.614 60.5124Z" fill="#101010"/>
<path d="M49.4876 45.614C56.6635 47.7246 62.2754 53.3365 64.386 60.5124L65.4827 64.2412C65.706 65.0005 65.0005 65.706 64.2412 65.4827L60.5124 64.386C53.3365 62.2754 47.7246 56.6635 45.614 49.4876L44 44L49.4876 45.614Z" fill="#101010"/>
<path d="M27.4876 23.614C34.6635 25.7246 40.2754 31.3365 42.386 38.5124L44 44L38.5124 42.386C31.3365 40.2754 25.7246 34.6635 23.614 27.4876L22.5173 23.7588C22.294 22.9995 22.9995 22.294 23.7588 22.5173L27.4876 23.614Z" fill="#101010"/>
</svg>
