<svg width="88" height="88" viewBox="0 0 88 88" fill="none" xmlns="http://www.w3.org/2000/svg">
<rect width="88" height="88" rx="44" fill="white"/>
<path d="M44 33C44 26.9249 48.9249 22 55 22C61.0751 22 66 26.9249 66 33C66 39.0751 61.0751 44 55 44H44V33Z" fill="#101010"/>
<path d="M22 33C22 26.9249 26.9249 22 33 22C39.0751 22 44 26.9249 44 33V44H33C26.9249 44 22 39.0751 22 33Z" fill="#101010"/>
<path d="M44 44H55C61.0751 44 66 48.9249 66 55C66 61.0751 61.0751 66 55 66C48.9249 66 44 61.0751 44 55V44Z" fill="#101010"/>
<path d="M22 55C22 48.9249 26.9249 44 33 44H44V55C44 61.0751 39.0751 66 33 66C26.9249 66 22 61.0751 22 55Z" fill="#101010"/>
</svg>
