<svg width="36" height="36" viewBox="0 0 36 36" fill="none" xmlns="http://www.w3.org/2000/svg">
<rect width="36" height="36" rx="18" fill="white"/>
<path d="M7 18C7 15.7909 8.79086 14 11 14H18V22H11C8.79086 22 7 20.2091 7 18Z" fill="#101010"/>
<path d="M18 14H25C27.2091 14 29 15.7909 29 18C29 20.2091 27.2091 22 25 22H18V14Z" fill="#101010"/>
<path d="M18 7C20.2091 7 22 8.79086 22 11L22 18L14 18L14 11C14 8.79086 15.7909 7 18 7Z" fill="#101010"/>
<path d="M22 18L22 25C22 27.2091 20.2091 29 18 29C15.7909 29 14 27.2091 14 25L14 18L22 18Z" fill="#101010"/>
</svg>
